PathFileType	4	(X/Y/Z)	/Users/itak/Documents/Research/Walk-IL/dataset/trc/00422_00012.trc
DataRate	CameraRate	NumFrames	NumMarkers	Units	OrigDataRate	OrigDataStartFrame	OrigNumFrames
100.000000	100.000000	4	53	mm	100.000000	260	521
Frame#	Time	RPSI			LPSI			L3			STRN			T10			C7			CLAV			RBAK			LBAK			LSHO			LUPA			LAEL			LAOL			LWTS			LWPS			LFRA			LIFD			LHPS			LHTS			RSHO			RUPA			RAEL			RAOL			RWTS			RWPS			RFRA			RIFD			RHTS			RHPS			RBHD			LFHD			RFHD			LBHD			LHIP			RHIP			RASI			LASI			LKNE			LTHI			LANK			LTIP			LTOE			LMT1			LMT5			LHEE			RKNE			RTHI			RANK			RTIP			RTOE			RMT1			RMT5			RHEE			
		X1	Y1	Z1	X2	Y2	Z2	X3	Y3	Z3	X4	Y4	Z4	X5	Y5	Z5	X6	Y6	Z6	X7	Y7	Z7	X8	Y8	Z8	X9	Y9	Z9	X10	Y10	Z10	X11	Y11	Z11	X12	Y12	Z12	X13	Y13	Z13	X14	Y14	Z14	X15	Y15	Z15	X16	Y16	Z16	X17	Y17	Z17	X18	Y18	Z18	X19	Y19	Z19	X20	Y20	Z20	X21	Y21	Z21	X22	Y22	Z22	X23	Y23	Z23	X24	Y24	Z24	X25	Y25	Z25	X26	Y26	Z26	X27	Y27	Z27	X28	Y28	Z28	X29	Y29	Z29	X30	Y30	Z30	X31	Y31	Z31	X32	Y32	Z32	X33	Y33	Z33	X34	Y34	Z34	X35	Y35	Z35	X36	Y36	Z36	X37	Y37	Z37	X38	Y38	Z38	X39	Y39	Z39	X40	Y40	Z40	X41	Y41	Z41	X42	Y42	Z42	X43	Y43	Z43	X44	Y44	Z44	X45	Y45	Z45	X46	Y46	Z46	X47	Y47	Z47	X48	Y48	Z48	X49	Y49	Z49	X50	Y50	Z50	X51	Y51	Z51	X52	Y52	Z52	X53	Y53	Z53	

261	2.6	-587.8541870117188	937.8326416015625	-387.6045837402344	-502.3861694335938	927.8982543945312	-490.3579406738281	-553.2171630859375	1003.359619140625	-429.75537109375	-392.26025390625	1163.864135742188	-265.5973205566406	-570.153076171875	1108.139892578125	-443.3504028320312	-546.8938598632812	1357.088989257812	-419.7527160644531	-435.6339111328125	1281.6376953125	-303.6326293945312	-618.2565307617188	1209.614379882812	-397.5924987792969	-482.4504699707031	1321.394287109375	-499.9156188964844	-386.2879943847656	1337.105224609375	-477.4327392578125	-352.8728332519531	1223.658447265625	-547.5637817382812	-319.8015747070312	1028.914794921875	-565.2874145507812	-404.8523559570312	1005.092834472656	-554.985595703125	-284.2777404785156	801.5822143554688	-494.8370666503906	-279.311279296875	799.8506469726562	-577.513671875	-301.77001953125	923.8726806640625	-572.3921508789062	-294.4088745117188	625.4990844726562	-521.7994995117188	-279.4622802734375	712.3746948242188	-573.4124145507812	-263.5628051757812	704.5811157226562	-511.2640991210938	-612.3455810546875	1336.783203125	-263.9996032714844	-661.3915405273438	1270.18359375	-229.5670776367188	-664.127197265625	1012.944702148438	-165.4759368896484	-614.3441162109375	993.9198608398438	-248.0780639648438	-495.8317260742188	859.4127807617188	-59.57672500610352	-559.1161499023438	833.6928100585938	-33.71807479858398	-638.8099365234375	957.9735107421875	-124.2939376831055	-445.2730712890625	702.2689819335938	-6.597579002380371	-463.2468566894531	773.2445678710938	-2.515993118286133	-527.5541381835938	755.0962524414062	-3.825785875320435	-588.2720947265625	1539.24609375	-355.5933532714844	-394.7091064453125	1562.022094726562	-327.3130493164062	-496.4715270996094	1562.884643554688	-261.2140808105469	-464.605712890625	1533.64453125	-455.8435668945312	-361.5718383789062	925.2862548828125	-508.8575134277344	-607.0455932617188	908.7403564453125	-248.2031707763672	-475.1811218261719	911.6264038085938	-191.3705749511719	-312.8422546386719	928.5721435546875	-397.3412475585938	-202.6482696533203	486.4428405761719	-320.29931640625	-245.9643249511719	605.4009399414062	-384.2089538574219	-196.1539611816406	37.08895111083984	-338.2495422363281	-183.5134582519531	248.9622344970703	-328.3993835449219	-124.9705352783203	49.69590377807617	-126.6442565917969	-195.87890625	43.35198974609375	-173.4446563720703	-113.7376098632812	38.81885147094727	-240.0322723388672	-263.509033203125	34.1475715637207	-335.0068664550781	-621.5836791992188	435.3887634277344	-339.5825805664062	-568.0396728515625	674.5624389648438	-237.0961608886719	-806.4761962890625	94.38845825195312	-540.70263671875	-655.6831665039062	318.9350891113281	-390.3150329589844	-635.759521484375	36.70316314697266	-562.1192626953125	-687.5641479492188	64.3267822265625	-600.0759887695312	-739.7448120117188	45.11735153198242	-518.9296264648438	-845.2989501953125	134.6446228027344	-612.9375610351562	
262	2.61	-576.0532836914062	938.2044677734375	-381.1216125488281	-489.4968872070312	929.3357543945312	-483.1667785644531	-540.7070922851562	1004.175354003906	-422.7384033203125	-381.67236328125	1165.688232421875	-258.2373352050781	-557.9208984375	1108.720458984375	-436.4377746582031	-536.1150512695312	1357.943359375	-413.9843444824219	-425.3068542480469	1283.273193359375	-296.8449096679688	-607.00927734375	1210.141723632812	-391.8341674804688	-470.8542175292969	1322.3798828125	-493.7637939453125	-375.0925903320312	1338.705444335938	-470.4229431152344	-340.5416259765625	1225.25048828125	-540.000244140625	-306.285888671875	1030.537719726562	-556.439453125	-391.4158935546875	1006.373779296875	-546.75732421875	-269.8287353515625	803.89013671875	-484.42431640625	-264.4658813476562	801.4752197265625	-566.9843139648438	-287.6039428710938	925.5267333984375	-562.7472534179688	-278.9707946777344	627.4320678710938	-509.804931640625	-264.1991271972656	713.9434204101562	-562.164306640625	-248.6787719726562	706.7702026367188	-499.8944702148438	-602.5478515625	1337.773315429688	-258.6503601074219	-651.6270751953125	1271.133666992188	-224.5273895263672	-655.8486938476562	1013.461547851562	-162.8770446777344	-604.6199951171875	995.2637939453125	-244.6613464355469	-492.7330627441406	854.6904907226562	-56.4693489074707	-557.1502685546875	830.224609375	-32.43381881713867	-632.22119140625	957.6204833984375	-122.1286468505859	-447.6783447265625	695.2678833007812	-5.220409393310547	-463.5955810546875	766.6973266601562	-0.2186098545789719	-528.373291015625	750.4588623046875	-3.295868873596191	-578.6893310546875	1540.19580078125	-350.2477416992188	-385.4906311035156	1563.6455078125	-320.6529846191406	-487.6899108886719	1564.2021484375	-255.2638244628906	-454.3484497070312	1534.849975585938	-449.6089782714844	-348.6090393066406	927.4258422851562	-500.5035705566406	-596.180419921875	908.9129028320312	-241.8892974853516	-464.8250427246094	912.6400756835938	-184.4268341064453	-300.7661743164062	930.7443237304688	-388.6321411132812	-193.4145812988281	486.6795043945312	-311.0276489257812	-234.7661895751953	606.6807861328125	-375.049560546875	-195.755615234375	37.79405975341797	-337.6850280761719	-178.0599822998047	248.8536376953125	-322.9367065429688	-124.2199935913086	45.2870979309082	-124.7218551635742	-195.3061828613281	41.37855911254883	-172.4878692626953	-113.2938385009766	37.64951705932617	-239.3948974609375	-262.9460754394531	34.99418640136719	-334.711669921875	-607.9589233398438	435.0604553222656	-329.4959106445312	-555.8363037109375	674.6663818359375	-229.5767517089844	-801.7897338867188	99.29588317871094	-535.5338134765625	-645.177978515625	319.883544921875	-380.6532592773438	-635.7333374023438	36.47520446777344	-561.4814453125	-684.6387939453125	66.21935272216797	-596.2763061523438	-738.007080078125	44.5139045715332	-516.793701171875	-837.4077758789062	144.5283203125	-605.8641357421875	
263	2.62	-564.5797119140625	938.6006469726562	-374.831787109375	-476.9667663574219	930.9170532226562	-476.0787353515625	-528.5585327148438	1005.238403320312	-415.9628601074219	-371.3505249023438	1167.64306640625	-250.7870635986328	-545.6695556640625	1109.523193359375	-429.4937744140625	-525.307373046875	1359.007568359375	-408.2030334472656	-415.1153564453125	1285.0654296875	-289.9738464355469	-595.8861083984375	1210.924072265625	-386.1983947753906	-459.1473388671875	1323.535034179688	-487.6181945800781	-363.8605346679688	1340.522338867188	-463.2420349121094	-328.0764465332031	1227.109497070312	-532.2745361328125	-292.5974731445312	1032.4453125	-547.445556640625	-377.4944763183594	1007.895690917969	-538.39892578125	-255.1318511962891	806.5078735351562	-473.8211059570312	-249.3775634765625	803.3920288085938	-556.28662109375	-273.2347717285156	927.4822387695312	-552.9423828125	-263.3116760253906	629.6764526367188	-497.6333923339844	-248.6551666259766	715.8087768554688	-550.7283325195312	-233.5088500976562	709.2882690429688	-488.3619079589844	-592.8898315429688	1338.96044921875	-253.3800811767578	-642.0265502929688	1272.297607421875	-219.5772094726562	-647.534912109375	1014.219970703125	-160.3741760253906	-594.8635864257812	996.8402099609375	-241.2334442138672	-489.8900756835938	850.1140747070312	-53.64804077148438	-555.4046630859375	826.9990844726562	-31.49235725402832	-625.6989135742188	957.5169067382812	-120.0934143066406	-450.5314636230469	688.467529296875	-4.507593154907227	-464.3458557128906	760.3005981445312	1.565506100654602	-529.5078735351562	746.0858154296875	-3.300342082977295	-569.1754150390625	1541.275146484375	-344.8760375976562	-376.3390502929688	1565.447387695312	-313.8979187011719	-478.9763793945312	1565.669311523438	-249.2492218017578	-444.0945739746094	1536.207153320312	-443.2977294921875	-335.851806640625	929.8612670898438	-492.1187133789062	-585.7134399414062	909.1304321289062	-235.7715301513672	-455.0189208984375	913.77880859375	-177.5782928466797	-288.9756164550781	933.01513671875	-379.8203125	-184.7394409179688	486.5703125	-302.81884765625	-223.912841796875	607.9154663085938	-366.4991149902344	-195.4808654785156	38.31748199462891	-337.280029296875	-173.2099456787109	248.5754699707031	-318.3472900390625	-123.5961151123047	42.17571258544922	-123.4468307495117	-194.8418579101562	40.0971794128418	-171.8688354492188	-112.9525604248047	36.96262741088867	-239.0888671875	-262.525146484375	35.5970458984375	-334.5181274414062	-593.7536010742188	434.5101318359375	-318.4779052734375	-543.6776123046875	674.8070068359375	-221.8289489746094	-796.1573486328125	104.4498519897461	-529.63720703125	-633.8209228515625	320.6730041503906	-370.0476684570312	-635.360107421875	36.05736541748047	-560.5350341796875	-680.9876098632812	68.22243499755859	-591.9456176757812	-735.8428344726562	44.2646484375	-514.3483276367188	-828.2566528320312	154.66455078125	-597.7647705078125	
264	2.63	-553.4827880859375	939.0220336914062	-368.8025207519531	-464.8395080566406	932.6488647460938	-469.1469116210938	-516.8131713867188	1006.509948730469	-409.4857177734375	-361.345703125	1169.64111328125	-243.2623291015625	-533.439697265625	1110.511474609375	-422.5615234375	-514.47802734375	1360.254638671875	-402.4194641113281	-405.0970458984375	1286.947387695312	-283.0130615234375	-584.9051513671875	1211.93017578125	-380.7338256835938	-447.3497314453125	1324.836791992188	-481.4511108398438	-352.5927429199219	1342.498291015625	-455.8746032714844	-315.4677734375	1229.17431640625	-524.3677368164062	-278.7301635742188	1034.574096679688	-538.3034057617188	-363.1085510253906	1009.605041503906	-529.906982421875	-240.2152709960938	809.358642578125	-463.0462646484375	-234.0449066162109	805.554931640625	-545.4248657226562	-258.6646423339844	929.68115234375	-542.9780883789062	-247.4100341796875	632.1841430664062	-485.3321533203125	-232.8375701904297	717.9304809570312	-539.137939453125	-218.0494689941406	712.0721435546875	-476.682373046875	-583.4091796875	1340.297241210938	-248.2194976806641	-632.6484985351562	1273.62158203125	-214.7753753662109	-639.233154296875	1015.185913085938	-157.9499816894531	-585.13330078125	998.5718383789062	-237.7801055908203	-487.2642822265625	845.7303466796875	-51.08788299560547	-553.8408813476562	824.033447265625	-30.86482238769531	-619.2628784179688	957.627197265625	-118.160400390625	-453.7040710449219	681.961669921875	-4.478790283203125	-465.4346008300781	754.1142578125	2.822264194488525	-530.8712768554688	742.007568359375	-3.830711603164673	-559.7391357421875	1542.463989257812	-339.4929504394531	-367.2633666992188	1567.3857421875	-307.0423889160156	-470.3490295410156	1567.251342773438	-243.1765594482422	-433.8508605957031	1537.702026367188	-436.9183959960938	-323.2661743164062	932.5406494140625	-483.7528381347656	-575.6900024414062	909.3429565429688	-229.9300994873047	-445.7853088378906	914.973388671875	-170.8469696044922	-277.5213317871094	935.3040771484375	-370.9485168457031	-176.6786193847656	486.1665344238281	-295.6846923828125	-213.5598602294922	609.0233154296875	-358.6360473632812	-195.2837066650391	38.66705703735352	-336.9983215332031	-168.9150848388672	248.1707305908203	-314.5715637207031	-123.1289215087891	40.17267608642578	-122.6760940551758	-194.5143890380859	39.35018539428711	-171.5013122558594	-112.7018814086914	36.61881637573242	-238.9907073974609	-262.2174377441406	36.01337432861328	-334.4212951660156	-579.0345458984375	433.74462890625	-306.5988159179688	-531.6642456054688	674.9632568359375	-213.9052276611328	-789.4645385742188	109.9453277587891	-522.92529296875	-621.5635375976562	321.2594909667969	-358.579833984375	-634.3619384765625	35.43680191040039	-559.0007934570312	-676.5082397460938	70.48804473876953	-587.050537109375	-733.0955200195312	44.63849258422852	-511.4401550292969	-817.897216796875	164.9393920898438	-588.6292114257812	
